<svg width="21" height="20" viewBox="0 0 21 20" fill="none" xmlns="http://www.w3.org/2000/svg">
<path d="M20.3148 8.24289C20.3148 3.69788 15.7584 0 10.1574 0C4.55713 0 0 3.69788 0 8.24289C0 12.3177 3.61371 15.73 8.49469 16.3754C8.82553 16.4465 9.27585 16.5935 9.38977 16.8762C9.49203 17.1328 9.4567 17.5352 9.42255 17.7947C9.42255 17.7947 9.30328 18.5112 9.27747 18.6642C9.23331 18.9209 9.07333 19.6685 10.1574 19.2117C11.2415 18.7549 16.0069 15.7672 18.1381 13.3145C19.6102 11.7002 20.3148 10.0619 20.3148 8.24289Z" fill="white"/>
<path d="M8.09363 6.04639H7.38104C7.27179 6.04639 7.18323 6.13474 7.18323 6.24377V10.6698C7.18323 10.7788 7.27179 10.8671 7.38104 10.8671H8.09363C8.20267 10.8671 8.29147 10.7788 8.29147 10.6698V6.24377C8.29147 6.13474 8.20267 6.04639 8.09363 6.04639Z" fill="#00B900"/>
<path d="M12.9976 6.04639H12.285C12.1758 6.04639 12.0872 6.13474 12.0872 6.24377V8.87314L10.059 6.13428C10.0544 6.12708 10.049 6.12054 10.0437 6.11404L10.0423 6.11288C10.0385 6.10846 10.0344 6.10449 10.0304 6.10056L10.0267 6.09729C10.0234 6.09427 10.02 6.09125 10.0162 6.08847L10.0111 6.08453C10.0076 6.08194 10.0044 6.07962 10.0009 6.0773L9.99484 6.07382C9.99136 6.07172 9.98788 6.06964 9.98441 6.06802L9.97809 6.06497C9.9744 6.06335 9.97067 6.06149 9.96674 6.06012L9.96021 6.05777C9.95648 6.0564 9.95255 6.05521 9.94858 6.05405L9.94162 6.05219C9.9379 6.05127 9.93417 6.05057 9.93024 6.04965L9.92184 6.04846C9.91858 6.048 9.9151 6.04755 9.91138 6.0473C9.90811 6.04684 9.90463 6.04684 9.90115 6.04663L9.89444 6.04639H9.18185C9.07281 6.04639 8.98401 6.13474 8.98401 6.24377V10.6698C8.98401 10.7788 9.07281 10.8671 9.18185 10.8671H9.89444C10.0037 10.8671 10.0923 10.7788 10.0923 10.6698V8.04108L12.123 10.7837C12.1369 10.8034 12.1544 10.8195 12.1732 10.8325L12.1753 10.8339C12.1793 10.8367 12.1832 10.8393 12.1874 10.8413L12.1932 10.8444C12.1962 10.846 12.1992 10.8476 12.2025 10.849C12.2058 10.8504 12.2088 10.8518 12.2123 10.8532L12.2181 10.8553C12.2227 10.8569 12.2271 10.8583 12.2316 10.8597L12.2344 10.8604C12.2504 10.8646 12.2676 10.8671 12.285 10.8671H12.9976C13.1069 10.8671 13.1955 10.7788 13.1955 10.6698V6.24377C13.1955 6.13474 13.1069 6.04639 12.9976 6.04639Z" fill="#00B900"/>
<path d="M6.37604 9.75912H4.44016V6.24423C4.44016 6.13498 4.35181 6.04639 4.24252 6.04639H3.53C3.42072 6.04639 3.33215 6.13498 3.33215 6.24423V10.6696C3.33215 10.7228 3.3533 10.7709 3.38748 10.8065L3.39026 10.8095L3.39304 10.8123C3.42862 10.8465 3.47653 10.8674 3.52975 10.8674H6.37604C6.48529 10.8674 6.57364 10.7788 6.57364 10.6696V9.95697C6.57364 9.84772 6.48529 9.75912 6.37604 9.75912Z" fill="#00B900"/>
<path d="M16.9322 7.15463C17.0412 7.15463 17.1295 7.06604 17.1295 6.95679V6.24423C17.1295 6.13498 17.0412 6.04639 16.9322 6.04639H14.0859C14.0324 6.04639 13.9841 6.06754 13.9483 6.10217L13.9462 6.10428L13.9429 6.10776C13.909 6.1431 13.8881 6.19101 13.8881 6.24402V10.6693C13.8881 10.7225 13.9092 10.7709 13.9434 10.8062L13.9462 10.8093L13.9489 10.8118C13.9845 10.846 14.0324 10.8671 14.0857 10.8671H16.9322C17.0412 10.8671 17.1295 10.7786 17.1295 10.6693V9.95676C17.1295 9.84747 17.0412 9.75891 16.9322 9.75891H14.9963V9.01077H16.9322C17.0412 9.01077 17.1295 8.92218 17.1295 8.81293V8.10062C17.1295 7.99112 17.0412 7.90253 16.9322 7.90253H14.9963V7.15463H16.9322Z" fill="#00B900"/>
</svg>
